name C:\Users\u0101727\Documents\MyRepositories\paper-ad\predictivesimulations_2d/Results/PredSim_2D/IK_c6.mot
datacolumns 11
datarows 25
range 0.00000000 0.23024807
endheader
time	pelvis_tilt	pelvis_tx	pelvis_ty	hip_flexion_l	hip_flexion_r	knee_angle_l	knee_angle_r	ankle_angle_l	ankle_angle_r	lumbar_extension	
          0.00000000	        -15.12000860	          0.00000000	          0.88365911	          0.94223485	         38.05615245	        -16.23061230	        -10.56760832	          5.77730857	         13.83800677	          9.61950872	
          0.00959367	        -15.08196704	          0.01477802	          0.88287338	          0.84855181	         37.57143269	        -17.72435693	         -9.96217840	          4.57677105	         13.38974051	          9.71640109	
          0.01918734	        -15.03287623	          0.02981946	          0.88203682	          0.83361165	         36.99151834	        -19.38559734	         -9.64275534	          3.27239094	         12.88938354	          9.82633188	
          0.02878101	        -14.97529263	          0.04510729	          0.88117278	          0.90465274	         36.24834388	        -21.21120584	         -9.72988423	          1.84413126	         12.33487141	          9.95327367	
          0.03837468	        -14.91742783	          0.06045563	          0.88040818	          1.06631031	         35.38506859	        -23.18259648	        -10.04389323	          0.37735778	         11.76553121	         10.08779952	
          0.04796835	        -14.87025625	          0.07552381	          0.87997244	          1.34543699	         34.52688377	        -25.20735906	        -10.32386344	         -0.90633258	         11.21529417	         10.20666630	
          0.05756202	        -14.84234053	          0.09006471	          0.88012716	          1.77029022	         33.71103335	        -27.14528485	        -10.58192079	         -1.90891438	         10.68404400	         10.29595722	
          0.06715569	        -14.83602547	          0.10401533	          0.88102806	          2.33678260	         32.93997489	        -28.93372523	        -10.81293429	         -2.65976613	         10.18644068	         10.35453117	
          0.07674936	        -14.84662303	          0.11745892	          0.88263442	          3.02814275	         32.19518067	        -30.59338748	        -11.00490757	         -3.16832115	          9.73877098	         10.38853094	
          0.08634303	        -14.86754159	          0.13051967	          0.88473651	          3.82382899	         31.45553659	        -32.15338369	        -11.14892281	         -3.44732352	          9.35252724	         10.40498484	
          0.09593670	        -14.89341529	          0.14330508	          0.88710181	          4.70828131	         30.70424068	        -33.63130565	        -11.23817459	         -3.51233699	          9.03399178	         10.40920755	
          0.10553037	        -14.92080479	          0.15588941	          0.88954763	          5.66946895	         29.93184607	        -35.03562232	        -11.27074659	         -3.37838683	          8.78477965	         10.40439539	
          0.11512404	        -14.94781672	          0.16831962	          0.89195037	          6.69838138	         29.13382756	        -36.36765285	        -11.24707844	         -3.06178230	          8.60385899	         10.39230703	
          0.12471771	        -14.97348915	          0.18062578	          0.89423081	          7.78761580	         28.30863787	        -37.62428778	        -11.16917371	         -2.57926833	          8.48859915	         10.37395137	
          0.13431138	        -14.99733318	          0.19282820	          0.89633855	          8.93099282	         27.45665043	        -38.80064669	        -11.04051328	         -1.94770679	          8.43526253	         10.34994354	
          0.14390505	        -15.01908348	          0.20494195	          0.89824115	         10.12296650	         26.57951682	        -39.89063690	        -10.86593976	         -1.18405020	          8.43930102	         10.32073605	
          0.15349871	        -15.03856969	          0.21697944	          0.89991764	         11.35817917	         25.67983170	        -40.88749182	        -10.65148884	         -0.30547789	          8.49558074	         10.28673689	
          0.16309238	        -15.05566614	          0.22895157	          0.90135538	         12.63121132	         24.76089864	        -41.78402585	        -10.40417458	          0.67061844	          8.59853111	         10.24835894	
          0.17268605	        -15.07028508	          0.24086786	          0.90254947	         13.93667707	         23.82667946	        -42.57263836	        -10.13199749	          1.72667559	          8.74233685	         10.20599591	
          0.18227972	        -15.08241196	          0.25273590	          0.90350318	         15.26958317	         22.88162006	        -43.24517117	         -9.84278709	          2.84502412	          8.92113277	         10.15996670	
          0.19187339	        -15.09217008	          0.26456301	          0.90422709	         16.62395815	         21.92962346	        -43.79409101	         -9.54360750	          4.00784905	          9.12844844	         10.11074710	
          0.20146706	        -15.09972136	          0.27635544	          0.90473812	         17.99396670	         20.97484616	        -44.21173223	         -9.24199627	          5.19730209	          9.35660814	         10.05876637	
          0.21106073	        -15.10520552	          0.28811876	          0.90505699	         19.37410943	         20.02185863	        -44.49031780	         -8.94581833	          6.39556384	          9.59754102	         10.00436595	
          0.22065440	        -15.10876897	          0.29985894	          0.90520510	         20.75791906	         19.07546339	        -44.62287333	         -8.66343616	          7.58483969	          9.84329590	          9.94792440	
          0.23024807	        -15.11063063	          0.31158305	          0.90520267	         22.13845330	         18.13892673	        -44.60377529	         -8.40053469	          8.74745267	         10.08652172	          9.88997521	
